# xmcd
#
# Track frame offsets: 
#        150
#        11703
#        24339
#        37981
#        51430
#        64034
#        77311
#        90861
#        105132
#        120910
#        135101
#        148306
#        163141
#        176447
#        191990
#        205793
#        220486
#        233054
#        247330
#        259849
#        272367
#
# Disc length: 3818 seconds
#
# Revision: 2
# Processed by: cddbd v1.5.2PL0 Copyright (c) Steve Scherf et al.
# Submitted via: ExactAudioCopy v0.95a5
#
DISCID=160ee815
DTITLE=Lee [Sonny Boy] Williamson - Million Years Blues - CD2
DYEAR=2005
DGENRE=Blues
TTITLE0=Worried Me Blues
TTITLE1=Black Gal Blues
TTITLE2=Frigidaire Blues
TTITLE3=Suzanna Blues
TTITLE4=Early In The Morning
TTITLE5=Sugar Mama Blues
TTITLE6=Skinny Woman
TTITLE7=My Little Cornelius
TTITLE8=Decoration Blues
TTITLE9=You Can Lead Me
TTITLE10=Miss Luisa Blues
TTITLE11=Sunnyland
TTITLE12=I'm Tired Trucking My Blues Away
TTITLE13=Beauty Parlour
TTITLE14=My Baby I've Been Your Slave
TTITLE15=Doggin' My Love Around
TTITLE16=Little Low Woman Blues
TTITLE17=Sugar Mama Blues No 2
TTITLE18=Good Gal Blues
TTITLE19=I'm Not Pleasing You
TTITLE20=Honey Bee Blues
EXTD=YEAR: 2005
EXTT0=
EXTT1=
EXTT2=
EXTT3=
EXTT4=
EXTT5=
EXTT6=
EXTT7=
EXTT8=
EXTT9=
EXTT10=
EXTT11=
EXTT12=
EXTT13=
EXTT14=
EXTT15=
EXTT16=
EXTT17=
EXTT18=
EXTT19=
EXTT20=
PLAYORDER=
